<svg xmlns="http://www.w3.org/2000/svg" xmlns:xlink="http://www.w3.org/1999/xlink" width="150" zoomAndPan="magnify" viewBox="0 0 112.5 112.499997" height="150" preserveAspectRatio="xMidYMid meet" version="1.0"><defs><filter x="0%" y="0%" width="100%" height="100%" id="2673abe394"><feColorMatrix values="0 0 0 0 1 0 0 0 0 1 0 0 0 0 1 0 0 0 1 0" color-interpolation-filters="sRGB"></feColorMatrix></filter><filter x="0%" y="0%" width="100%" height="100%" id="c55d92320e"><feColorMatrix values="0 0 0 0 1 0 0 0 0 1 0 0 0 0 1 0.2126 0.7152 0.0722 0 0" color-interpolation-filters="sRGB"></feColorMatrix></filter><clipPath id="3f9df399e9"><path d="M 0 0 L 112.003906 0 L 112.003906 112.003906 L 0 112.003906 Z M 0 0 " clip-rule="nonzero"></path></clipPath><clipPath id="1d3eed08fe"><path d="M 0 13 L 112.003906 13 L 112.003906 99 L 0 99 Z M 0 13 " clip-rule="nonzero"></path></clipPath><mask id="b31deb9d4a"><g filter="url(#2673abe394)"><g filter="url(#c55d92320e)" transform="matrix(0.0944875, 0, 0, 0.0939426, -3.34829, 12.539734)"><image x="0" y="0" width="1296" height="922" preserveAspectRatio="xMidYMid meet"></image></g></g></mask></defs><g clip-path="url(#3f9df399e9)"><path fill="#ffffff" d="M 0 0 L 112.003906 0 L 112.003906 112.003906 L 0 112.003906 Z M 0 0 " fill-opacity="1" fill-rule="nonzero"></path><path fill="#ffffff" d="M 0 0 L 112.003906 0 L 112.003906 112.003906 L 0 112.003906 Z M 0 0 " fill-opacity="1" fill-rule="nonzero"></path></g><g clip-path="url(#1d3eed08fe)"><g mask="url(#b31deb9d4a)"><g transform="matrix(0.0944875, 0, 0, 0.0939426, -3.34829, 12.539734)"><image x="0" y="0" width="1296" height="922" preserveAspectRatio="xMidYMid meet"></image></g></g></g></svg>