<svg xmlns="http://www.w3.org/2000/svg" xmlns:xlink="http://www.w3.org/1999/xlink" width="500" zoomAndPan="magnify" viewBox="0 0 375 374.999991" height="500" preserveAspectRatio="xMidYMid meet" version="1.0"><defs><clipPath id="2f526e15c5"><path d="M 117.671875 269.835938 L 186.5 269.835938 L 186.5 338.664062 L 117.671875 338.664062 Z M 117.671875 269.835938 " clip-rule="nonzero"></path></clipPath><clipPath id="9cd97e2dbf"><path d="M 152.085938 269.835938 C 133.078125 269.835938 117.671875 285.242188 117.671875 304.25 C 117.671875 323.253906 133.078125 338.664062 152.085938 338.664062 C 171.09375 338.664062 186.5 323.253906 186.5 304.25 C 186.5 285.242188 171.09375 269.835938 152.085938 269.835938 Z M 152.085938 269.835938 " clip-rule="nonzero"></path></clipPath><clipPath id="d6e356e52b"><path d="M 0.671875 0.835938 L 69.5 0.835938 L 69.5 69.664062 L 0.671875 69.664062 Z M 0.671875 0.835938 " clip-rule="nonzero"></path></clipPath><clipPath id="c8c2c5ea25"><path d="M 35.085938 0.835938 C 16.078125 0.835938 0.671875 16.242188 0.671875 35.25 C 0.671875 54.253906 16.078125 69.664062 35.085938 69.664062 C 54.09375 69.664062 69.5 54.253906 69.5 35.25 C 69.5 16.242188 54.09375 0.835938 35.085938 0.835938 Z M 35.085938 0.835938 " clip-rule="nonzero"></path></clipPath><clipPath id="0b2204d338"><rect x="0" width="70" y="0" height="70"></rect></clipPath><clipPath id="f9b44fa81f"><path d="M 64 39 L 318 39 L 318 296 L 64 296 Z M 64 39 " clip-rule="nonzero"></path></clipPath><clipPath id="57d3408ea2"><path d="M -1.003906 87.078125 L 208.277344 -32.992188 L 372.683594 253.5625 L 163.402344 373.632812 Z M -1.003906 87.078125 " clip-rule="nonzero"></path></clipPath><clipPath id="3d049900cc"><path d="M -1.003906 87.078125 L 208.277344 -32.992188 L 372.683594 253.5625 L 163.402344 373.632812 Z M -1.003906 87.078125 " clip-rule="nonzero"></path></clipPath><clipPath id="1f13ae8815"><rect x="0" width="348" y="0" height="339"></rect></clipPath></defs><g transform="matrix(1, 0, 0, 1, 1, 0)"><g clip-path="url(#1f13ae8815)"><g clip-path="url(#2f526e15c5)"><g clip-path="url(#9cd97e2dbf)"><g transform="matrix(1, 0, 0, 1, 117, 269)"><g clip-path="url(#0b2204d338)"><g clip-path="url(#d6e356e52b)"><g clip-path="url(#c8c2c5ea25)"><path fill="#1f7622" d="M 0.671875 0.835938 L 69.5 0.835938 L 69.5 69.664062 L 0.671875 69.664062 Z M 0.671875 0.835938 " fill-opacity="1" fill-rule="nonzero"></path></g></g></g></g></g></g><g clip-path="url(#f9b44fa81f)"><g clip-path="url(#57d3408ea2)"><g clip-path="url(#3d049900cc)"><path fill="#9cd421" d="M 236.269531 219.179688 C 236.09375 219.191406 235.914062 219.222656 235.734375 219.246094 C 237.222656 218.453125 238.71875 217.675781 240.246094 216.90625 C 238.921875 217.613281 237.597656 218.371094 236.269531 219.179688 Z M 112.40625 153.542969 C 112.554688 155.332031 112.761719 157.144531 113.011719 158.988281 C 112.949219 159.191406 112.890625 159.394531 112.832031 159.605469 C 112.671875 157.59375 112.527344 155.578125 112.40625 153.542969 Z M 255.796875 168.75 C 236.59375 174.472656 216.832031 182.433594 199.921875 193.234375 C 187.125 201.398438 175.691406 212.378906 169.417969 226.203125 C 166.289062 233.082031 163.921875 242.875 164.382812 251.886719 C 164.632812 256.789062 165.734375 261.472656 167.992188 265.332031 C 163.332031 269.882812 159.085938 274.234375 155.421875 278.085938 C 154.734375 278.808594 154.078125 279.515625 153.429688 280.195312 C 152.035156 277.625 150.472656 274.71875 148.808594 271.523438 C 142.089844 258.679688 133.5625 241.28125 126.472656 223.300781 C 124.6875 218.746094 122.988281 214.148438 121.441406 209.589844 C 117.574219 194.664062 114.710938 179.488281 113.199219 163.628906 C 113.238281 163.214844 113.265625 162.789062 113.320312 162.386719 C 113.34375 162.167969 113.386719 161.964844 113.417969 161.753906 C 119.132812 197.78125 141.40625 239.925781 141.40625 239.925781 C 228.0625 117.132812 81.363281 39.847656 81.363281 39.847656 C 81.886719 40.761719 67.652344 106.253906 66.800781 113.539062 C 63.976562 137.386719 63.339844 162.917969 67.1875 186.660156 C 70.089844 204.628906 76.734375 222.425781 88.964844 235.90625 C 95.050781 242.613281 104.695312 249.871094 114.84375 253.648438 C 120.363281 255.703125 126.027344 256.71875 131.355469 256.078125 C 134.148438 263.363281 136.917969 270.105469 139.414062 275.960938 C 141.722656 281.367188 144.1875 286.710938 146.5 292.117188 C 146.972656 293.21875 147.585938 294.300781 148.523438 295.050781 C 149.460938 295.800781 150.78125 296.160156 151.894531 295.710938 C 152.761719 295.363281 153.382812 294.59375 153.957031 293.859375 C 156.601562 290.496094 159.234375 287.128906 161.933594 283.8125 C 169.550781 274.417969 180.046875 262.136719 191.472656 250.757812 C 194.375 247.878906 197.332031 245.058594 200.300781 242.367188 C 210.457031 234.464844 221.128906 227.261719 232.773438 220.855469 C 233.109375 220.746094 233.445312 220.636719 233.765625 220.535156 C 233.949219 220.480469 234.117188 220.449219 234.285156 220.398438 C 208.589844 236.699219 183.683594 267.683594 183.683594 267.683594 C 306.378906 293.433594 317.050781 155.527344 317.050781 155.527344 C 316.996094 156.144531 261.683594 166.996094 255.796875 168.75 " fill-opacity="1" fill-rule="nonzero"></path></g></g></g></g></g></svg>